<svg xmlns="http://www.w3.org/2000/svg" xmlns:xlink="http://www.w3.org/1999/xlink" width="500" zoomAndPan="magnify" viewBox="0 0 375 374.999991" height="500" preserveAspectRatio="xMidYMid meet" version="1.0"><defs><clipPath id="94ddb62ed7"><path d="M 63.296875 2.460938 L 311.539062 2.460938 L 311.539062 372.210938 L 63.296875 372.210938 Z M 63.296875 2.460938 " clip-rule="nonzero"/></clipPath></defs><g clip-path="url(#94ddb62ed7)"><path fill="#ff6b00" d="M 211.289062 320.648438 L 211.289062 175.640625 C 241.707031 185.648438 263.738281 214.324219 263.726562 248.183594 C 263.710938 281.917969 241.703125 310.597656 211.289062 320.648438 Z M 184.007812 324.40625 L 184.007812 250.523438 C 186.367188 250.589844 188.363281 250.59375 190.828125 250.527344 L 190.828125 324.402344 C 188.453125 324.507812 186.4375 324.507812 184.007812 324.40625 Z M 111.109375 126.488281 C 111.109375 126.449219 109.949219 126.480469 163.546875 126.480469 L 163.546875 199.007812 C 133.117188 188.949219 111.097656 160.242188 111.109375 126.488281 Z M 247.007812 78.75 L 127.953125 78.75 C 158.578125 40.699219 216.304688 40.636719 247.007812 78.75 Z M 113.910156 106.023438 C 114.554688 103.707031 115.308594 101.429688 116.167969 99.207031 L 258.789062 99.207031 C 259.640625 101.4375 260.390625 103.714844 261.03125 106.023438 Z M 190.828125 126.480469 L 190.828125 202.769531 C 188.46875 202.867188 186.480469 202.875 184.007812 202.765625 L 184.007812 126.480469 Z M 211.640625 126.476562 L 311.539062 126.476562 C 311.515625 57.976562 255.972656 2.460938 187.453125 2.460938 C 118.914062 2.460938 63.394531 58 63.371094 126.472656 C 63.347656 186.957031 106.546875 237.136719 163.546875 248.269531 L 163.546875 320.707031 C 133.640625 310.921875 111.046875 282.613281 111.035156 248.191406 L 63.296875 248.191406 C 63.320312 316.703125 118.871094 372.183594 187.332031 372.210938 C 238.648438 372.210938 282.777344 341.132812 301.683594 296.492188 C 320.421875 252.257812 312.171875 199.789062 277.839844 163.238281 C 259.960938 144.207031 236.875 131.472656 211.640625 126.476562 " fill-opacity="1" fill-rule="nonzero"/></g></svg>